<?xml version="1.0" standalone="no"?>
<!DOCTYPE svg PUBLIC "-//W3C//DTD SVG 20010904//EN"
 "http://www.w3.org/TR/2001/REC-SVG-20010904/DTD/svg10.dtd">
<svg version="1.0" xmlns="http://www.w3.org/2000/svg"
 width="16.000000pt" height="16.000000pt" viewBox="0 0 16.000000 16.000000"
 preserveAspectRatio="xMidYMid meet">
<metadata>
Created by potrace 1.11, written by Peter Selinger 2001-2013
</metadata>
<g transform="translate(0.000000,16.000000) scale(0.005298,-0.005298)"
fill="#000000" stroke="none">
<path d="M1489 2916 c-2 -2 -40 -6 -84 -10 -93 -7 -112 -10 -221 -36 -341 -80
-650 -289 -843 -570 -222 -323 -294 -685 -216 -1090 15 -75 69 -220 120 -318
137 -263 345 -472 604 -605 135 -70 296 -127 401 -143 107 -16 155 -19 300
-19 133 1 186 5 275 24 407 86 742 325 955 681 51 85 124 259 135 317 3 18 9
43 15 57 5 15 8 26 5 26 -2 0 0 14 5 30 38 134 27 460 -20 606 -6 17 -12 40
-14 50 -2 10 -18 54 -35 97 -131 328 -368 585 -690 747 -170 85 -404 145 -587
149 -48 1 -91 4 -95 6 -3 3 -8 3 -10 1z"/>
</g>
</svg>
